<svg id="Calque_8" data-name="Calque 8" xmlns="http://www.w3.org/2000/svg" viewBox="0 0 841.89 594.89"><defs><style>.cls-1{fill:#2c2e7c;}</style></defs><path class="cls-1" d="M309.32,397.25" transform="translate(0 -0.38)"/><path class="cls-1" d="M309.31,403.86" transform="translate(0 -0.38)"/><path class="cls-1" d="M415.61,431.31c5.61-.25,12,.48,17.6-.17s10.92-1.46,16.34-2.46a22.67,22.67,0,0,0,7.95-2.55c2.38-1.46,4.28-4,4.2-6.82-.05-1.54-.53-3.45.74-4.33,1.09-.76,3.07-.31,3.48-1.57.18-.57-.12-1.17-.17-1.77-.13-1.55,1.45-2.72,3-3.11s3.16-.35,4.53-1.09,2.21-2.81,1.06-3.86a3.18,3.18,0,0,0,3.11-1.52c1.47-2.58-1.33-5.63-4.15-6.53a23.72,23.72,0,0,0,8.66-2.25,3.54,3.54,0,0,0-4-1,7.8,7.8,0,0,1,3.64-.92l3-.26a19.62,19.62,0,0,1,2.54-.1c1.64.09,3.24.61,4.85.72l4.24.8c1,.39,2.16.42,3.19.81a5.51,5.51,0,0,0,1,.32c1.31.2,2.48-1.17,3.78-1a26.35,26.35,0,0,0,20.74-4.82c1.92-1.5,3.61-3.25,5.49-4.79a33.63,33.63,0,0,0,3.84-3.29c1.66-1.84,2.66-4.2,4-6.2l1.94-3.51a.79.79,0,0,1,1-.26c2-1.35,4.77-1.67,7.17-1.84,8.8-.61,16.69-5.38,24.3-9.86a8.48,8.48,0,0,1,4.4-1.57c1.57.05,3.22,1.35,3,2.91-2.1-.33-4.57-.54-6,1a21.78,21.78,0,0,0-1.49,2.28c-1.67,2.26-4.86,2.53-7.62,3.05a54,54,0,0,0-6.8,1.89l-11.79,3.85a4.53,4.53,0,0,0-1.66.82,4.35,4.35,0,0,0-.95,1.59l-6.77,16.22a3.27,3.27,0,0,0-.15,2.3c.64,1.89,2.43,1.79,3.93,1.59l22.75-2.91a3.3,3.3,0,0,0,.26,2.33l-.91.53c2,2.37,2.36,5.65,2.66,8.72a3.58,3.58,0,0,0-2.52,5.24,20.1,20.1,0,0,0,2,2.1c1.12,1.26,1.53,3,2.18,4.52a6.34,6.34,0,0,0,5.46,3.6c2.13,0,4.2-.39,6.29.28,1.28.41,2.47,1.09,3.77,1.4,3.56.87,7.17-1.1,10.83-1.24a29.31,29.31,0,0,1,5.44.59,42.63,42.63,0,0,0,13.62-.15c19-3.28,38.29,4.08,57.32.7a2.74,2.74,0,0,0,1.79-.81,2.54,2.54,0,0,0,.37-1.56,14.49,14.49,0,0,0-2-7.26,22.73,22.73,0,0,0,5.94,5.6c2.39,1.35,5.51,1.74,7.81.27a3.17,3.17,0,0,0-1.13-2.33c-2.9-2.43-3.34-6.65-3.57-10.42a25.82,25.82,0,0,1,.17-6.69,65.57,65.57,0,0,1,2.18-6.47,9.38,9.38,0,0,0,.06-6.68,19.43,19.43,0,0,1,2.83,12,38.72,38.72,0,0,0-.54,5.67,11.93,11.93,0,0,0,2.73,6.72,22.09,22.09,0,0,0,5.6,4.76,14.79,14.79,0,0,1-1.06-7,16.44,16.44,0,0,0,.17-2.21,10.54,10.54,0,0,0-2-4.94l5.1,7.72c1.3,2,3.14,3.58,3.12,5.94a26.73,26.73,0,0,0,1.81-7.93,16.59,16.59,0,0,0,0-2.73c-.4-4.17-2.92-7.79-5.35-11.19l-2.77-3.88c-1.85-2.58-3.65-5.46-5.56-8a24.54,24.54,0,0,1-4-8.94c1.1,3.84,4.14,6.75,7.06,9.47l15.55,14.51c2.84,2.64,5.75,5.39,7.32,8.94a55.85,55.85,0,0,1-6.28-14.57,110.14,110.14,0,0,1-2.4-12.75c-.86-5.75-5.77-9.79-10-13.75,6.68,2.89,12.4,8.68,13.77,15.83.29,1.51.39,3.06.62,4.58a26.06,26.06,0,0,0,4.21,10.74c.26.37.61.78,1.06.72s.69-.56.83-1a21.24,21.24,0,0,0-4.14-20.07,30.32,30.32,0,0,1-2.61-3.37,27.26,27.26,0,0,1-2-3.36,25,25,0,0,1-1.14-3.62,44.61,44.61,0,0,0-5.66-12.66,17,17,0,0,0-2.29-2.92,19.51,19.51,0,0,0-1.92-1.59l-5.33-4.07a13.88,13.88,0,0,1,4.8,1.74l4.34,2.22a21.39,21.39,0,0,1,3.17,1.86A21.89,21.89,0,0,1,703,348.6c2.17,2.21,4.39,4.53,5.4,7.46a9.71,9.71,0,0,1,2.68-9.38A58.56,58.56,0,0,0,712,332.2a15.33,15.33,0,0,1,2.49,9.52,60.35,60.35,0,0,1-1.57,9.87,30.88,30.88,0,0,0-.77,9.94c.38,3,1.52,5.78,2.23,8.69a4.53,4.53,0,0,0,.91,2.14,1.41,1.41,0,0,0,2.07.08,1.4,1.4,0,0,0,.24-.69,11.28,11.28,0,0,0-.4-4c-.92-3.38-2.66-8-1.16-11.87a14.51,14.51,0,0,1,1.48-2.67q3.21-5,6.68-9.79a13.13,13.13,0,0,0,2.57-4.81,34.6,34.6,0,0,1-1.68,6.92c-.52,1.32-1.19,2.58-1.67,3.91a28.58,28.58,0,0,0-1.19,5.9c-.4,3.11-.79,6.31,0,9.34.16.62.48,1.32,1.11,1.43a1.7,1.7,0,0,0,1.19-.4,13.37,13.37,0,0,0,5.58-8.23c9.42-44.58,54-71.53,92.51-96l19.25-.84V595.28H0V424.36l112.61,11.26a54,54,0,0,1,28.92,2,27.68,27.68,0,0,0,7.2,2,19.62,19.62,0,0,0,7-1.16,97.61,97.61,0,0,0,21.73-9.72,61.23,61.23,0,0,1,5.83-3.33c11-5.11,24.24-.95,34.4,5.69,3.37,2.21,6.61,4.69,10.32,6.24a46.28,46.28,0,0,0,10.42,2.55c5.54.9,11.15,1.81,16.76,1.38,1.21-2,4.81-2.42,5.75-4.52a5.67,5.67,0,0,0,.38-2.28,30.59,30.59,0,0,0-.66-6.68,25.55,25.55,0,0,1,4.3,6.89,16.28,16.28,0,0,1,.47-7.91c.35-1,.83-1.92,1.12-2.92a16.76,16.76,0,0,0,.23-5.83c-.26-3.53-.59-7.05-1-10.57-.35-3.2-.51-5.21-2.06-8,4.76,6.47,5.42,15,5.91,23,.26,4.32.51,8.76-.86,12.87l8.75-15.08a46.44,46.44,0,0,1-3.5,11.18c-.89,1.75-2,3.5-2,5.46.67,0,4.67.64,8.27,1.27a37,37,0,0,0,12.25.12c13.13-2.05,43.53-6.67,55.37-7.4C364.94,429.78,415.61,431.31,415.61,431.31Z" transform="translate(0 -0.38)"/><path class="cls-1" d="M393.79,415.29" transform="translate(0 -0.38)"/><path class="cls-1" d="M321.08.57A87.92,87.92,0,0,0,344.45.38" transform="translate(0 -0.38)"/><path class="cls-1" d="M219.83,191.12a2.57,2.57,0,0,1-.93-1.09c-.33-1,.69-2,1.73-2.08a5.13,5.13,0,0,1,2.9,1" transform="translate(0 -0.38)"/></svg>